<?xml version="1.0" encoding="UTF-8"?>
<svg width="374px" height="374px" viewBox="0 0 374 374" version="1.1" xmlns="http://www.w3.org/2000/svg" xmlns:xlink="http://www.w3.org/1999/xlink">
    <title>launch pad bg</title>
    <g id="launch-pad-bg" stroke="none" stroke-width="1" fill="none" fill-rule="evenodd" opacity="0.104096912" stroke-linecap="round" stroke-linejoin="round">
        <g id="logo-pattern" transform="translate(-57.000000, -57.000000)" stroke="#000000" stroke-width="7.5">
            <g id="launch-pad-icon" transform="translate(187.000000, 187.000000)">
                <path d="M4.5,83.25 L4.5,34.5 C4.5,28.285 9.535,23.25 15.75,23.25 C21.965,23.25 27,28.285 27,34.5 L27,60.75" id="Path"></path>
                <path d="M87,60.75 L87,34.5 C87,28.285 92.035,23.25 98.25,23.25 C104.465,23.25 109.5,28.285 109.5,34.5 L109.5,83.25" id="Path"></path>
                <path d="M27,34.5 L27,30.75 C27,14.18 40.43,0.75 57,0.75 C73.57,0.75 87,14.18 87,30.75 L87,34.5" id="Path"></path>
                <path d="M102,105.75 C102,109.89 98.64,113.25 94.5,113.25 L19.5,113.25 C15.36,113.25 12,109.89 12,105.75 L12,98.25 C12,95.89 13.11,93.665 15,92.25 L36,76.5 C39.775,73.665 42,69.22 42,64.5 L42,39.05 C41.75,30.575 48.425,23.5 56.9,23.255 C56.935,23.255 56.965,23.255 57,23.25 C65.285,23.25 72,29.965 72,38.25 L72,64.5 C72,69.22 74.225,73.665 78,76.5 L99,92.25 C100.89,93.665 102,95.89 102,98.25 L102,105.75 Z" id="Path"></path>
                <line x1="53.25" y1="42" x2="60.75" y2="42" id="Path"></line>
                <line x1="57" y1="90.75" x2="57" y2="113.25" id="Path"></line>
            </g>
            <g id="launch-pad-icon" transform="translate(374.000000, 0.000000)">
                <path d="M4.5,83.25 L4.5,34.5 C4.5,28.285 9.535,23.25 15.75,23.25 C21.965,23.25 27,28.285 27,34.5 L27,60.75" id="Path"></path>
                <path d="M87,60.75 L87,34.5 C87,28.285 92.035,23.25 98.25,23.25 C104.465,23.25 109.5,28.285 109.5,34.5 L109.5,83.25" id="Path"></path>
                <path d="M27,34.5 L27,30.75 C27,14.18 40.43,0.75 57,0.75 C73.57,0.75 87,14.18 87,30.75 L87,34.5" id="Path"></path>
                <path d="M102,105.75 C102,109.89 98.64,113.25 94.5,113.25 L19.5,113.25 C15.36,113.25 12,109.89 12,105.75 L12,98.25 C12,95.89 13.11,93.665 15,92.25 L36,76.5 C39.775,73.665 42,69.22 42,64.5 L42,39.05 C41.75,30.575 48.425,23.5 56.9,23.255 C56.935,23.255 56.965,23.255 57,23.25 C65.285,23.25 72,29.965 72,38.25 L72,64.5 C72,69.22 74.225,73.665 78,76.5 L99,92.25 C100.89,93.665 102,95.89 102,98.25 L102,105.75 Z" id="Path"></path>
                <line x1="53.25" y1="42" x2="60.75" y2="42" id="Path"></line>
                <line x1="57" y1="90.75" x2="57" y2="113.25" id="Path"></line>
            </g>
            <g id="launch-pad-icon" transform="translate(374.000000, 374.000000)">
                <path d="M4.5,83.25 L4.5,34.5 C4.5,28.285 9.535,23.25 15.75,23.25 C21.965,23.25 27,28.285 27,34.5 L27,60.75" id="Path"></path>
                <path d="M87,60.75 L87,34.5 C87,28.285 92.035,23.25 98.25,23.25 C104.465,23.25 109.5,28.285 109.5,34.5 L109.5,83.25" id="Path"></path>
                <path d="M27,34.5 L27,30.75 C27,14.18 40.43,0.75 57,0.75 C73.57,0.75 87,14.18 87,30.75 L87,34.5" id="Path"></path>
                <path d="M102,105.75 C102,109.89 98.64,113.25 94.5,113.25 L19.5,113.25 C15.36,113.25 12,109.89 12,105.75 L12,98.25 C12,95.89 13.11,93.665 15,92.25 L36,76.5 C39.775,73.665 42,69.22 42,64.5 L42,39.05 C41.75,30.575 48.425,23.5 56.9,23.255 C56.935,23.255 56.965,23.255 57,23.25 C65.285,23.25 72,29.965 72,38.25 L72,64.5 C72,69.22 74.225,73.665 78,76.5 L99,92.25 C100.89,93.665 102,95.89 102,98.25 L102,105.75 Z" id="Path"></path>
                <line x1="53.25" y1="42" x2="60.75" y2="42" id="Path"></line>
                <line x1="57" y1="90.75" x2="57" y2="113.25" id="Path"></line>
            </g>
            <g id="launch-pad-icon">
                <path d="M4.5,83.25 L4.5,34.5 C4.5,28.285 9.535,23.25 15.75,23.25 C21.965,23.25 27,28.285 27,34.5 L27,60.75" id="Path"></path>
                <path d="M87,60.75 L87,34.5 C87,28.285 92.035,23.25 98.25,23.25 C104.465,23.25 109.5,28.285 109.5,34.5 L109.5,83.25" id="Path"></path>
                <path d="M27,34.5 L27,30.75 C27,14.18 40.43,0.75 57,0.75 C73.57,0.75 87,14.18 87,30.75 L87,34.5" id="Path"></path>
                <path d="M102,105.75 C102,109.89 98.64,113.25 94.5,113.25 L19.5,113.25 C15.36,113.25 12,109.89 12,105.75 L12,98.25 C12,95.89 13.11,93.665 15,92.25 L36,76.5 C39.775,73.665 42,69.22 42,64.5 L42,39.05 C41.75,30.575 48.425,23.5 56.9,23.255 C56.935,23.255 56.965,23.255 57,23.25 C65.285,23.25 72,29.965 72,38.25 L72,64.5 C72,69.22 74.225,73.665 78,76.5 L99,92.25 C100.89,93.665 102,95.89 102,98.25 L102,105.75 Z" id="Path"></path>
                <line x1="53.25" y1="42" x2="60.75" y2="42" id="Path"></line>
                <line x1="57" y1="90.75" x2="57" y2="113.25" id="Path"></line>
            </g>
            <g id="launch-pad-icon" transform="translate(0.000000, 374.000000)">
                <path d="M4.5,83.25 L4.5,34.5 C4.5,28.285 9.535,23.25 15.75,23.25 C21.965,23.25 27,28.285 27,34.5 L27,60.75" id="Path"></path>
                <path d="M87,60.75 L87,34.5 C87,28.285 92.035,23.25 98.25,23.25 C104.465,23.25 109.5,28.285 109.5,34.5 L109.5,83.25" id="Path"></path>
                <path d="M27,34.5 L27,30.75 C27,14.18 40.43,0.75 57,0.75 C73.57,0.75 87,14.18 87,30.75 L87,34.5" id="Path"></path>
                <path d="M102,105.75 C102,109.89 98.64,113.25 94.5,113.25 L19.5,113.25 C15.36,113.25 12,109.89 12,105.75 L12,98.25 C12,95.89 13.11,93.665 15,92.25 L36,76.5 C39.775,73.665 42,69.22 42,64.5 L42,39.05 C41.75,30.575 48.425,23.5 56.9,23.255 C56.935,23.255 56.965,23.255 57,23.25 C65.285,23.25 72,29.965 72,38.25 L72,64.5 C72,69.22 74.225,73.665 78,76.5 L99,92.25 C100.89,93.665 102,95.89 102,98.25 L102,105.75 Z" id="Path"></path>
                <line x1="53.25" y1="42" x2="60.75" y2="42" id="Path"></line>
                <line x1="57" y1="90.75" x2="57" y2="113.25" id="Path"></line>
            </g>
        </g>
    </g>
</svg>