<svg width="150" height="587" viewBox="0 0 150 587" fill="none" xmlns="http://www.w3.org/2000/svg">
<path d="M78.8984 58.7109H69.2012L55.2 95.0498H63.9708L66.2592 88.8926H79.4896L77.094 82.0831H68.3844L74.05 66.4469L84.1296 95.0498H92.9008L78.8984 58.7109Z" fill="black"/>
<path d="M112.525 68.326C112.502 68.202 112.468 68.082 112.423 67.9672C112.412 67.9272 112.375 67.8532 112.375 67.8532C112.059 67.166 111.366 66.6876 110.56 66.6876C109.455 66.6876 108.56 67.5832 108.56 68.6876C108.56 68.9124 108.599 69.1276 108.667 69.3288L108.661 69.3308C109.544 72.4736 110 75.7567 110 79.1111C110 88.7266 106.255 97.7673 99.456 104.567C92.6564 111.367 83.616 115.111 74 115.111C64.3844 115.111 55.3432 111.366 48.5444 104.567C41.744 97.7673 38 88.7266 38 79.1111C38 69.4952 41.7448 60.4549 48.5444 53.6554C55.3432 46.8554 64.3844 43.1115 74 43.1115C82.5864 43.1115 90.7124 46.0994 97.1948 51.5806C96.9772 52.135 96.8556 52.7382 96.8556 53.3702C96.8556 56.0705 99.0444 58.2585 101.745 58.2585C104.445 58.2585 106.634 56.0705 106.634 53.3702C106.634 50.6698 104.445 48.4806 101.745 48.4806C101.156 48.4806 100.592 48.5846 100.068 48.7754C93.0664 42.7539 83.96 39.1111 74 39.1111C51.9084 39.1111 34 57.0197 34 79.1111C34 101.202 51.9084 119.111 74 119.111C96.0916 119.111 114 101.203 114 79.1111C114 75.3744 113.484 71.7576 112.525 68.326Z" fill="black"/>
<path d="M60 157.984H91.392V163.552H64.704V176.608H60V157.984ZM76.704 202.91L72.864 201.806V209.822L76.704 208.718C78.368 208.206 80.08 207.71 81.84 207.23C83.6 206.782 85.344 206.334 87.072 205.886V205.694C85.312 205.246 83.552 204.798 81.792 204.35C80.064 203.902 78.368 203.422 76.704 202.91ZM60 192.398L91.392 202.622V209.15L60 219.374V213.518L68.496 211.07V200.51L60 198.062V192.398ZM59.424 248.794C59.424 246.97 59.68 245.322 60.192 243.85C60.736 242.41 61.584 241.162 62.736 240.106C63.888 239.082 65.36 238.282 67.152 237.706C68.976 237.162 71.184 236.89 73.776 236.89H91.392V242.458H73.344C71.648 242.458 70.208 242.602 69.024 242.89C67.872 243.21 66.944 243.642 66.24 244.186C65.536 244.762 65.024 245.434 64.704 246.202C64.416 246.97 64.272 247.834 64.272 248.794C64.272 249.754 64.416 250.634 64.704 251.434C65.024 252.234 65.536 252.922 66.24 253.498C66.944 254.074 67.872 254.522 69.024 254.842C70.208 255.162 71.648 255.322 73.344 255.322H91.392V260.65H73.776C71.184 260.65 68.976 260.378 67.152 259.834C65.36 259.29 63.888 258.49 62.736 257.434C61.584 256.41 60.736 255.162 60.192 253.69C59.68 252.25 59.424 250.618 59.424 248.794ZM60 282.887H91.392L91.392 288.599L73.728 298.391L67.056 301.607V301.799C68.688 301.671 70.432 301.511 72.288 301.319C74.176 301.159 76 301.079 77.76 301.079H91.392V306.407H60V300.695L77.664 290.903L84.336 287.687V287.495C82.672 287.623 80.928 287.767 79.104 287.927C77.28 288.119 75.488 288.215 73.728 288.215H60V282.887ZM59.424 341.315C59.424 339.331 59.776 337.475 60.48 335.747C61.184 334.019 62.224 332.515 63.6 331.235C64.976 329.987 66.672 328.995 68.688 328.259C70.704 327.523 73.008 327.155 75.6 327.155C78.16 327.155 80.448 327.523 82.464 328.259C84.512 329.027 86.24 330.051 87.648 331.331C89.056 332.643 90.128 334.163 90.864 335.891C91.6 337.651 91.968 339.523 91.968 341.507C91.968 343.491 91.568 345.251 90.768 346.787C89.968 348.323 89.04 349.587 87.984 350.579L84.384 347.603C85.216 346.771 85.872 345.875 86.352 344.915C86.864 343.955 87.12 342.867 87.12 341.651C87.12 340.371 86.848 339.187 86.304 338.099C85.792 337.043 85.04 336.115 84.048 335.315C83.088 334.547 81.904 333.939 80.496 333.491C79.088 333.075 77.504 332.867 75.744 332.867C72.16 332.867 69.344 333.635 67.296 335.171C65.28 336.739 64.272 338.851 64.272 341.507C64.272 342.915 64.56 344.163 65.136 345.251C65.744 346.339 66.528 347.331 67.488 348.227L63.984 351.203C62.512 349.923 61.376 348.451 60.576 346.787C59.808 345.155 59.424 343.331 59.424 341.315ZM60 370.843H91.392V376.411H78.768V389.131H91.392V394.699H60V389.131H73.92V376.411H60V370.843ZM60 441.081H91.392V450.969C91.392 452.697 91.232 454.297 90.912 455.769C90.592 457.273 90.048 458.569 89.28 459.657C88.512 460.745 87.504 461.593 86.256 462.201C85.04 462.809 83.52 463.113 81.696 463.113C79.968 463.113 78.464 462.809 77.184 462.201C75.904 461.593 74.832 460.745 73.968 459.657C73.136 458.601 72.512 457.337 72.096 455.865C71.712 454.425 71.52 452.857 71.52 451.161V446.649H60L60 441.081ZM75.984 446.649V450.729C75.984 455.337 77.888 457.641 81.696 457.641C83.68 457.641 85.04 457.033 85.776 455.817C86.544 454.633 86.928 452.873 86.928 450.537V446.649H75.984ZM76.704 487.46L72.864 486.356V494.372L76.704 493.268C78.368 492.756 80.08 492.26 81.84 491.78C83.6 491.332 85.344 490.884 87.072 490.436V490.244C85.312 489.796 83.552 489.348 81.792 488.9C80.064 488.452 78.368 487.972 76.704 487.46ZM60 476.948L91.392 487.172L91.392 493.7L60 503.924V498.068L68.496 495.62V485.06L60 482.612V476.948ZM60 522.193H91.392V530.593C91.392 535.393 90.096 539.137 87.504 541.825C84.912 544.513 81.024 545.857 75.84 545.857C73.248 545.857 70.96 545.505 68.976 544.801C66.992 544.129 65.328 543.137 63.984 541.825C62.672 540.545 61.68 538.977 61.008 537.121C60.336 535.297 60 533.217 60 530.881V522.193ZM64.512 527.761V530.209C64.512 533.409 65.424 535.857 67.248 537.553C69.104 539.281 71.968 540.145 75.84 540.145C79.68 540.145 82.48 539.281 84.24 537.553C86 535.825 86.88 533.377 86.88 530.209V527.761H64.512Z" fill="black"/>
</svg>
