<?xml version="1.0" encoding="UTF-8"?>
<svg width="114px" height="114px" viewBox="0 0 114 114" version="1.1" xmlns="http://www.w3.org/2000/svg" xmlns:xlink="http://www.w3.org/1999/xlink">
    <title>apollo logo</title>
    <g id="apollo-logo" stroke="none" stroke-width="1" fill="none" fill-rule="evenodd">
        <polygon id="Path" fill="#000000" fill-rule="nonzero" points="63.98022 27.93 50.16171 27.93 30.21 79.71336 42.70839 79.71336 45.96936 70.93935 64.82268 70.93935 61.40895 61.23567 48.99777 61.23567 57.07125 38.9538 71.43468 79.71336 83.93364 79.71336"></polygon>
        <path d="M111.89841,41.63166 C111.86478,41.45496 111.8169,41.28396 111.75249,41.12037 C111.7371,41.06337 111.68409,40.95792 111.68409,40.95792 C111.23436,39.97866 110.24598,39.29694 109.09743,39.29694 C107.52309,39.29694 106.24743,40.57317 106.24743,42.14694 C106.24743,42.46728 106.30329,42.77394 106.40019,43.06065 L106.39221,43.0635 C107.64963,47.54199 108.29943,52.22055 108.29943,57.00057 C108.29943,70.7028 102.96309,83.58594 93.2748,93.27537 C83.58537,102.96537 70.7028,108.30057 57,108.30057 C43.29777,108.30057 30.41406,102.96423 20.72577,93.27537 C11.0352,83.58594 5.7,70.7028 5.7,57.00057 C5.7,43.29777 11.03634,30.4152 20.72577,20.72577 C30.41406,11.03577 43.29777,5.70057 57,5.70057 C69.23562,5.70057 80.81517,9.95847 90.05259,17.76918 C89.74251,18.5592 89.56923,19.41876 89.56923,20.31936 C89.56923,24.16743 92.68827,27.28533 96.53691,27.28533 C100.38441,27.28533 103.50402,24.16743 103.50402,20.31936 C103.50402,16.47129 100.38441,13.35168 96.53691,13.35168 C95.6973,13.35168 94.89303,13.49988 94.14747,13.77177 C84.16962,5.19099 71.193,0 57,0 C25.51947,0 0,25.52004 0,57.00057 C0,88.4811 25.51947,114.00114 57,114.00114 C88.48053,114.00114 114,88.48167 114,57.00057 C114,51.67563 113.26413,46.52169 111.89841,41.63166 Z" id="Path" fill="#000000" fill-rule="nonzero"></path>
    </g>
</svg>