<svg width="800" height="150" viewBox="0 0 800 150" fill="none" xmlns="http://www.w3.org/2000/svg">
<path d="M67.8984 54.5999H58.2012L44.2 90.9387H52.9708L55.2592 84.7816H68.4896L66.094 77.972H57.3844L63.05 62.3358L73.1296 90.9387H81.9008L67.8984 54.5999Z" fill="black"/>
<path d="M101.525 64.2149C101.502 64.0909 101.468 63.9709 101.423 63.8561C101.412 63.8161 101.375 63.7421 101.375 63.7421C101.059 63.0549 100.366 62.5765 99.5596 62.5765C98.4548 62.5765 97.5596 63.4721 97.5596 64.5765C97.5596 64.8013 97.5988 65.0165 97.6668 65.2177L97.6612 65.2197C98.5436 68.3625 98.9996 71.6456 98.9996 75C98.9996 84.6155 95.2548 93.6562 88.456 100.456C81.6564 107.256 72.616 111 63 111C53.3844 111 44.3432 107.255 37.5444 100.456C30.744 93.6562 27 84.6155 27 75C27 65.3841 30.7448 56.3438 37.5444 49.5443C44.3432 42.7443 53.3844 39.0004 63 39.0004C71.5864 39.0004 79.7124 41.9883 86.1948 47.4695C85.9772 48.0239 85.8556 48.6271 85.8556 49.2591C85.8556 51.9594 88.0444 54.1474 90.7452 54.1474C93.4452 54.1474 95.6344 51.9594 95.6344 49.2591C95.6344 46.5587 93.4452 44.3695 90.7452 44.3695C90.156 44.3695 89.5916 44.4735 89.0684 44.6643C82.0664 38.6428 72.96 35 63 35C40.9084 35 23 52.9086 23 75C23 97.0914 40.9084 115 63 115C85.0916 115 103 97.0918 103 75C103 71.2632 102.484 67.6465 101.525 64.2149Z" fill="black"/>
<path d="M135.984 90V58.608H142.272L147.84 73.968C148.192 74.96 148.528 75.984 148.848 77.04C149.168 78.064 149.504 79.088 149.856 80.112H150.048C150.4 79.088 150.72 78.064 151.008 77.04C151.328 75.984 151.664 74.96 152.016 73.968L157.44 58.608H163.776V90H158.64V75.648C158.64 74.912 158.656 74.112 158.688 73.248C158.752 72.384 158.816 71.52 158.88 70.656C158.944 69.76 159.024 68.896 159.12 68.064C159.216 67.2 159.296 66.4 159.36 65.664H159.168L156.624 72.96L151.488 87.072H148.176L142.992 72.96L140.496 65.664H140.304C140.368 66.4 140.432 67.2 140.496 68.064C140.592 68.896 140.672 69.76 140.736 70.656C140.832 71.52 140.896 72.384 140.928 73.248C140.992 74.112 141.024 74.912 141.024 75.648V90H135.984ZM186.15 90V58.608H191.718V90H186.15ZM223.265 90.576C221.153 90.576 219.105 90.176 217.121 89.376C215.169 88.576 213.441 87.44 211.937 85.968L215.201 82.176C216.321 83.232 217.601 84.096 219.041 84.768C220.481 85.408 221.921 85.728 223.361 85.728C225.153 85.728 226.513 85.36 227.441 84.624C228.369 83.888 228.833 82.912 228.833 81.696C228.833 81.056 228.705 80.512 228.449 80.064C228.225 79.616 227.889 79.232 227.441 78.912C227.025 78.56 226.513 78.24 225.905 77.952C225.329 77.664 224.689 77.376 223.985 77.088L219.665 75.216C218.897 74.896 218.129 74.496 217.361 74.016C216.625 73.536 215.953 72.96 215.345 72.288C214.737 71.616 214.241 70.832 213.857 69.936C213.505 69.04 213.329 68.016 213.329 66.864C213.329 65.616 213.585 64.464 214.097 63.408C214.641 62.32 215.377 61.376 216.305 60.576C217.233 59.776 218.337 59.152 219.617 58.704C220.929 58.256 222.353 58.032 223.889 58.032C225.713 58.032 227.473 58.4 229.169 59.136C230.865 59.84 232.321 60.8 233.537 62.016L230.705 65.568C229.681 64.736 228.625 64.08 227.537 63.6C226.449 63.12 225.233 62.88 223.889 62.88C222.385 62.88 221.185 63.216 220.289 63.888C219.393 64.528 218.945 65.424 218.945 66.576C218.945 67.184 219.073 67.712 219.329 68.16C219.617 68.576 219.985 68.96 220.433 69.312C220.913 69.632 221.457 69.936 222.065 70.224C222.673 70.48 223.297 70.736 223.937 70.992L228.209 72.768C229.137 73.152 229.985 73.6 230.753 74.112C231.521 74.624 232.177 75.216 232.721 75.888C233.297 76.56 233.745 77.344 234.065 78.24C234.385 79.104 234.545 80.112 234.545 81.264C234.545 82.544 234.289 83.744 233.777 84.864C233.265 85.984 232.513 86.976 231.521 87.84C230.561 88.672 229.377 89.344 227.969 89.856C226.593 90.336 225.025 90.576 223.265 90.576ZM263.071 90.576C260.959 90.576 258.911 90.176 256.927 89.376C254.975 88.576 253.247 87.44 251.743 85.968L255.007 82.176C256.127 83.232 257.407 84.096 258.847 84.768C260.287 85.408 261.727 85.728 263.167 85.728C264.959 85.728 266.319 85.36 267.247 84.624C268.175 83.888 268.639 82.912 268.639 81.696C268.639 81.056 268.511 80.512 268.255 80.064C268.031 79.616 267.695 79.232 267.247 78.912C266.831 78.56 266.319 78.24 265.711 77.952C265.135 77.664 264.495 77.376 263.791 77.088L259.471 75.216C258.703 74.896 257.935 74.496 257.167 74.016C256.431 73.536 255.759 72.96 255.151 72.288C254.543 71.616 254.047 70.832 253.663 69.936C253.311 69.04 253.135 68.016 253.135 66.864C253.135 65.616 253.391 64.464 253.903 63.408C254.447 62.32 255.183 61.376 256.111 60.576C257.039 59.776 258.143 59.152 259.423 58.704C260.735 58.256 262.159 58.032 263.695 58.032C265.519 58.032 267.279 58.4 268.975 59.136C270.671 59.84 272.127 60.8 273.343 62.016L270.511 65.568C269.487 64.736 268.431 64.08 267.343 63.6C266.255 63.12 265.039 62.88 263.695 62.88C262.191 62.88 260.991 63.216 260.095 63.888C259.199 64.528 258.751 65.424 258.751 66.576C258.751 67.184 258.879 67.712 259.135 68.16C259.423 68.576 259.791 68.96 260.239 69.312C260.719 69.632 261.263 69.936 261.871 70.224C262.479 70.48 263.103 70.736 263.743 70.992L268.015 72.768C268.943 73.152 269.791 73.6 270.559 74.112C271.327 74.624 271.983 75.216 272.527 75.888C273.103 76.56 273.551 77.344 273.871 78.24C274.191 79.104 274.351 80.112 274.351 81.264C274.351 82.544 274.095 83.744 273.583 84.864C273.071 85.984 272.319 86.976 271.327 87.84C270.367 88.672 269.183 89.344 267.775 89.856C266.399 90.336 264.831 90.576 263.071 90.576ZM294.459 90V58.608H300.027V90H294.459ZM334.598 90.576C332.55 90.576 330.678 90.208 328.982 89.472C327.286 88.704 325.83 87.616 324.614 86.208C323.398 84.768 322.454 83.04 321.782 81.024C321.11 79.008 320.774 76.72 320.774 74.16C320.774 71.632 321.11 69.376 321.782 67.392C322.454 65.376 323.398 63.68 324.614 62.304C325.83 60.928 327.286 59.872 328.982 59.136C330.678 58.4 332.55 58.032 334.598 58.032C336.646 58.032 338.518 58.4 340.214 59.136C341.91 59.872 343.366 60.928 344.582 62.304C345.83 63.68 346.79 65.376 347.462 67.392C348.134 69.376 348.47 71.632 348.47 74.16C348.47 76.72 348.134 79.008 347.462 81.024C346.79 83.04 345.83 84.768 344.582 86.208C343.366 87.616 341.91 88.704 340.214 89.472C338.518 90.208 336.646 90.576 334.598 90.576ZM334.598 85.728C335.846 85.728 336.966 85.456 337.958 84.912C338.95 84.368 339.798 83.6 340.502 82.608C341.206 81.584 341.75 80.368 342.134 78.96C342.518 77.52 342.71 75.92 342.71 74.16C342.71 70.64 341.974 67.888 340.502 65.904C339.062 63.888 337.094 62.88 334.598 62.88C332.102 62.88 330.118 63.888 328.646 65.904C327.206 67.888 326.486 70.64 326.486 74.16C326.486 75.92 326.678 77.52 327.062 78.96C327.446 80.368 327.99 81.584 328.694 82.608C329.398 83.6 330.246 84.368 331.238 84.912C332.23 85.456 333.35 85.728 334.598 85.728ZM369.15 90V58.608H374.862L384.654 76.272L387.87 82.944H388.062C387.934 81.312 387.774 79.568 387.582 77.712C387.422 75.824 387.342 74 387.342 72.24V58.608H392.67V90H386.958L377.166 72.336L373.95 65.664H373.758C373.886 67.328 374.03 69.072 374.19 70.896C374.382 72.72 374.478 74.512 374.478 76.272V90H369.15ZM439.059 90V58.608H449.091C450.723 58.608 452.211 58.752 453.555 59.04C454.931 59.296 456.115 59.728 457.107 60.336C458.131 60.912 458.915 61.696 459.459 62.688C460.035 63.68 460.323 64.896 460.323 66.336C460.323 67.84 459.939 69.232 459.171 70.512C458.403 71.792 457.331 72.672 455.955 73.152V73.344C457.683 73.728 459.107 74.544 460.227 75.792C461.379 77.008 461.955 78.672 461.955 80.784C461.955 82.352 461.651 83.712 461.043 84.864C460.435 86.016 459.587 86.976 458.499 87.744C457.443 88.512 456.179 89.088 454.707 89.472C453.235 89.824 451.635 90 449.907 90H439.059ZM444.627 71.568H448.611C450.819 71.568 452.403 71.168 453.363 70.368C454.355 69.568 454.851 68.496 454.851 67.152C454.851 65.616 454.339 64.528 453.315 63.888C452.291 63.248 450.755 62.928 448.707 62.928H444.627V71.568ZM444.627 85.68H449.331C451.635 85.68 453.411 85.264 454.659 84.432C455.907 83.568 456.531 82.256 456.531 80.496C456.531 78.832 455.923 77.632 454.707 76.896C453.491 76.128 451.699 75.744 449.331 75.744H444.627V85.68ZM482.1 90V58.608H492.708C494.34 58.608 495.86 58.768 497.268 59.088C498.676 59.408 499.892 59.936 500.916 60.672C501.94 61.376 502.74 62.32 503.316 63.504C503.924 64.688 504.228 66.16 504.228 67.92C504.228 70.32 503.652 72.256 502.5 73.728C501.38 75.2 499.876 76.256 497.988 76.896L505.476 90H499.236L492.468 77.712H487.668V90H482.1ZM487.668 73.296H492.132C494.276 73.296 495.908 72.848 497.028 71.952C498.18 71.056 498.756 69.712 498.756 67.92C498.756 66.096 498.18 64.832 497.028 64.128C495.908 63.424 494.276 63.072 492.132 63.072H487.668V73.296ZM524.906 90V58.608H530.474V90H524.906ZM552.853 90V58.608H571.765V63.312H558.421V71.328H569.701V76.032H558.421V85.296H572.245V90H552.853ZM593.081 90V58.608H612.041V63.312H598.649V72.192H610.073V76.896H598.649V90H593.081ZM631.95 90V58.608H637.518V90H631.95ZM659.896 90V58.608H665.608L675.4 76.272L678.616 82.944H678.808C678.68 81.312 678.52 79.568 678.328 77.712C678.168 75.824 678.088 74 678.088 72.24V58.608H683.416V90H677.704L667.912 72.336L664.696 65.664H664.504C664.632 67.328 664.776 69.072 664.936 70.896C665.128 72.72 665.224 74.512 665.224 76.272V90H659.896ZM718.949 90.576C716.837 90.576 714.869 90.224 713.045 89.52C711.253 88.816 709.685 87.776 708.341 86.4C707.029 85.024 706.005 83.328 705.269 81.312C704.533 79.296 704.165 76.992 704.165 74.4C704.165 71.84 704.549 69.552 705.317 67.536C706.085 65.488 707.125 63.76 708.437 62.352C709.781 60.944 711.349 59.872 713.141 59.136C714.965 58.4 716.917 58.032 718.997 58.032C721.237 58.032 723.125 58.448 724.661 59.28C726.229 60.08 727.509 60.992 728.501 62.016L725.525 65.616C724.725 64.848 723.829 64.208 722.837 63.696C721.877 63.152 720.661 62.88 719.189 62.88C717.781 62.88 716.501 63.152 715.349 63.696C714.229 64.208 713.253 64.96 712.421 65.952C711.621 66.912 710.997 68.096 710.549 69.504C710.101 70.912 709.877 72.496 709.877 74.256C709.877 77.84 710.677 80.656 712.277 82.704C713.909 84.72 716.309 85.728 719.477 85.728C720.373 85.728 721.221 85.616 722.021 85.392C722.821 85.136 723.477 84.784 723.989 84.336V77.568H718.037V73.008H728.981V86.832C727.925 87.888 726.517 88.784 724.757 89.52C723.029 90.224 721.093 90.576 718.949 90.576Z" fill="black"/>
</svg>
