<svg width="150" height="390" viewBox="0 0 150 390" fill="none" xmlns="http://www.w3.org/2000/svg">
<path d="M78.8984 58.7109H69.2012L55.2 95.0498H63.9708L66.2592 88.8926H79.4896L77.094 82.0831H68.3844L74.05 66.4469L84.1296 95.0498H92.9008L78.8984 58.7109Z" fill="black"/>
<path d="M112.525 68.326C112.502 68.202 112.468 68.082 112.423 67.9672C112.412 67.9272 112.375 67.8532 112.375 67.8532C112.059 67.166 111.366 66.6876 110.56 66.6876C109.455 66.6876 108.56 67.5832 108.56 68.6876C108.56 68.9124 108.599 69.1276 108.667 69.3288L108.661 69.3308C109.544 72.4736 110 75.7567 110 79.1111C110 88.7266 106.255 97.7673 99.456 104.567C92.6564 111.367 83.616 115.111 74 115.111C64.3844 115.111 55.3432 111.366 48.5444 104.567C41.744 97.7673 38 88.7266 38 79.1111C38 69.4952 41.7448 60.4549 48.5444 53.6554C55.3432 46.8554 64.3844 43.1115 74 43.1115C82.5864 43.1115 90.7124 46.0994 97.1948 51.5806C96.9772 52.135 96.8556 52.7382 96.8556 53.3702C96.8556 56.0705 99.0444 58.2585 101.745 58.2585C104.445 58.2585 106.634 56.0705 106.634 53.3702C106.634 50.6698 104.445 48.4806 101.745 48.4806C101.156 48.4806 100.592 48.5846 100.068 48.7754C93.0664 42.7539 83.96 39.1111 74 39.1111C51.9084 39.1111 34 57.0197 34 79.1111C34 101.202 51.9084 119.111 74 119.111C96.0916 119.111 114 101.203 114 79.1111C114 75.3744 113.484 71.7576 112.525 68.326Z" fill="black"/>
<path d="M59.424 170.176C59.424 168.128 59.792 166.256 60.528 164.56C61.296 162.864 62.384 161.408 63.792 160.192C65.232 158.976 66.96 158.032 68.976 157.36C70.992 156.688 73.28 156.352 75.84 156.352C78.368 156.352 80.624 156.688 82.608 157.36C84.624 158.032 86.32 158.976 87.696 160.192C89.072 161.408 90.128 162.864 90.864 164.56C91.6 166.256 91.968 168.128 91.968 170.176C91.968 172.224 91.6 174.096 90.864 175.792C90.128 177.488 89.072 178.944 87.696 180.16C86.32 181.408 84.624 182.368 82.608 183.04C80.624 183.712 78.368 184.048 75.84 184.048C73.28 184.048 70.992 183.712 68.976 183.04C66.96 182.368 65.232 181.408 63.792 180.16C62.384 178.944 61.296 177.488 60.528 175.792C59.792 174.096 59.424 172.224 59.424 170.176ZM64.272 170.176C64.272 171.424 64.544 172.544 65.088 173.536C65.632 174.528 66.4 175.376 67.392 176.08C68.416 176.784 69.632 177.328 71.04 177.712C72.48 178.096 74.08 178.288 75.84 178.288C79.36 178.288 82.112 177.552 84.096 176.08C86.112 174.64 87.12 172.672 87.12 170.176C87.12 167.68 86.112 165.696 84.096 164.224C82.112 162.784 79.36 162.064 75.84 162.064C74.08 162.064 72.48 162.256 71.04 162.64C69.632 163.024 68.416 163.568 67.392 164.272C66.4 164.976 65.632 165.824 65.088 166.816C64.544 167.808 64.272 168.928 64.272 170.176ZM60 204.728H91.392V215.336C91.392 216.968 91.232 218.488 90.912 219.896C90.592 221.304 90.064 222.52 89.328 223.544C88.624 224.568 87.68 225.368 86.496 225.944C85.312 226.552 83.84 226.856 82.08 226.856C79.68 226.856 77.744 226.28 76.272 225.128C74.8 224.008 73.744 222.504 73.104 220.616L60 228.104V221.864L72.288 215.096V210.296H60V204.728ZM76.704 210.296V214.76C76.704 216.904 77.152 218.536 78.048 219.656C78.944 220.808 80.288 221.384 82.08 221.384C83.904 221.384 85.168 220.808 85.872 219.656C86.576 218.536 86.928 216.904 86.928 214.76V210.296H76.704ZM60 247.534H91.392V257.566C91.392 259.198 91.248 260.686 90.96 262.03C90.704 263.406 90.272 264.59 89.664 265.582C89.088 266.606 88.304 267.39 87.312 267.934C86.32 268.51 85.104 268.798 83.664 268.798C82.16 268.798 80.768 268.414 79.488 267.646C78.208 266.878 77.328 265.806 76.848 264.43H76.656C76.272 266.158 75.456 267.582 74.208 268.702C72.992 269.854 71.328 270.43 69.216 270.43C67.648 270.43 66.288 270.126 65.136 269.518C63.984 268.91 63.024 268.062 62.256 266.974C61.488 265.918 60.912 264.654 60.528 263.182C60.176 261.71 60 260.11 60 258.382V247.534ZM78.432 253.102V257.086C78.432 259.294 78.832 260.878 79.632 261.838C80.432 262.83 81.504 263.326 82.848 263.326C84.384 263.326 85.472 262.814 86.112 261.79C86.752 260.766 87.072 259.23 87.072 257.182V253.102H78.432ZM64.32 253.102V257.806C64.32 260.11 64.736 261.886 65.568 263.134C66.432 264.382 67.744 265.006 69.504 265.006C71.168 265.006 72.368 264.398 73.104 263.182C73.872 261.966 74.256 260.174 74.256 257.806V253.102H64.32ZM60 290.575H91.392V296.143H60V290.575ZM60 324.858H86.688V315.786H91.392V339.498H86.688V330.426H60L60 324.858Z" fill="black"/>
</svg>
