<svg width="150" height="800" viewBox="0 0 150 800" fill="none" xmlns="http://www.w3.org/2000/svg">
<path d="M78.8984 58.7109H69.2012L55.2 95.0498H63.9708L66.2592 88.8926H79.4896L77.094 82.0831H68.3844L74.05 66.4469L84.1296 95.0498H92.9008L78.8984 58.7109Z" fill="black"/>
<path d="M112.525 68.326C112.502 68.202 112.468 68.082 112.423 67.9672C112.412 67.9272 112.375 67.8532 112.375 67.8532C112.059 67.166 111.366 66.6876 110.56 66.6876C109.455 66.6876 108.56 67.5832 108.56 68.6876C108.56 68.9124 108.599 69.1276 108.667 69.3288L108.661 69.3308C109.544 72.4736 110 75.7567 110 79.1111C110 88.7266 106.255 97.7673 99.456 104.567C92.6564 111.367 83.616 115.111 74 115.111C64.3844 115.111 55.3432 111.366 48.5444 104.567C41.744 97.7673 38 88.7266 38 79.1111C38 69.4952 41.7448 60.4549 48.5444 53.6554C55.3432 46.8554 64.3844 43.1115 74 43.1115C82.5864 43.1115 90.7124 46.0994 97.1948 51.5806C96.9772 52.135 96.8556 52.7382 96.8556 53.3702C96.8556 56.0705 99.0444 58.2585 101.745 58.2585C104.445 58.2585 106.634 56.0705 106.634 53.3702C106.634 50.6698 104.445 48.4806 101.745 48.4806C101.156 48.4806 100.592 48.5846 100.068 48.7754C93.0664 42.7539 83.96 39.1111 74 39.1111C51.9084 39.1111 34 57.0197 34 79.1111C34 101.202 51.9084 119.111 74 119.111C96.0916 119.111 114 101.203 114 79.1111C114 75.3744 113.484 71.7576 112.525 68.326Z" fill="black"/>
<path d="M60 157.984H91.392V164.272L76.032 169.84C75.04 170.192 74.016 170.528 72.96 170.848C71.936 171.168 70.912 171.504 69.888 171.856V172.048C70.912 172.4 71.936 172.72 72.96 173.008C74.016 173.328 75.04 173.664 76.032 174.016L91.392 179.44V185.776H60V180.64H74.352C75.088 180.64 75.888 180.656 76.752 180.688C77.616 180.752 78.48 180.816 79.344 180.88C80.24 180.944 81.104 181.024 81.936 181.12C82.8 181.216 83.6 181.296 84.336 181.36V181.168L77.04 178.624L62.928 173.488V170.176L77.04 164.992L84.336 162.496V162.304C83.6 162.368 82.8 162.432 81.936 162.496C81.104 162.592 80.24 162.672 79.344 162.736C78.48 162.832 77.616 162.896 76.752 162.928C75.888 162.992 75.088 163.024 74.352 163.024H60V157.984ZM60 208.15H91.392V213.718H60L60 208.15ZM59.424 245.265C59.424 243.153 59.824 241.105 60.624 239.121C61.424 237.169 62.56 235.441 64.032 233.937L67.824 237.201C66.768 238.321 65.904 239.601 65.232 241.041C64.592 242.481 64.272 243.921 64.272 245.361C64.272 247.153 64.64 248.513 65.376 249.441C66.112 250.369 67.088 250.833 68.304 250.833C68.944 250.833 69.488 250.705 69.936 250.449C70.384 250.225 70.768 249.889 71.088 249.441C71.44 249.025 71.76 248.513 72.048 247.905C72.336 247.329 72.624 246.689 72.912 245.985L74.784 241.665C75.104 240.897 75.504 240.129 75.984 239.361C76.464 238.625 77.04 237.953 77.712 237.345C78.384 236.737 79.168 236.241 80.064 235.857C80.96 235.505 81.984 235.329 83.136 235.329C84.384 235.329 85.536 235.585 86.592 236.097C87.68 236.641 88.624 237.377 89.424 238.305C90.224 239.233 90.848 240.337 91.296 241.617C91.744 242.929 91.968 244.353 91.968 245.889C91.968 247.713 91.6 249.473 90.864 251.169C90.16 252.865 89.2 254.321 87.984 255.537L84.432 252.705C85.264 251.681 85.92 250.625 86.4 249.537C86.88 248.449 87.12 247.233 87.12 245.889C87.12 244.385 86.784 243.185 86.112 242.289C85.472 241.393 84.576 240.945 83.424 240.945C82.816 240.945 82.288 241.073 81.84 241.329C81.424 241.617 81.04 241.985 80.688 242.433C80.368 242.913 80.064 243.457 79.776 244.065C79.52 244.673 79.264 245.297 79.008 245.937L77.232 250.209C76.848 251.137 76.4 251.985 75.888 252.753C75.376 253.521 74.784 254.177 74.112 254.721C73.44 255.297 72.656 255.745 71.76 256.065C70.896 256.385 69.888 256.545 68.736 256.545C67.456 256.545 66.256 256.289 65.136 255.777C64.016 255.265 63.024 254.513 62.16 253.521C61.328 252.561 60.656 251.377 60.144 249.969C59.664 248.593 59.424 247.025 59.424 245.265ZM59.424 285.071C59.424 282.959 59.824 280.911 60.624 278.927C61.424 276.975 62.56 275.247 64.032 273.743L67.824 277.007C66.768 278.127 65.904 279.407 65.232 280.847C64.592 282.287 64.272 283.727 64.272 285.167C64.272 286.959 64.64 288.319 65.376 289.247C66.112 290.175 67.088 290.639 68.304 290.639C68.944 290.639 69.488 290.511 69.936 290.255C70.384 290.031 70.768 289.695 71.088 289.247C71.44 288.831 71.76 288.319 72.048 287.711C72.336 287.135 72.624 286.495 72.912 285.791L74.784 281.471C75.104 280.703 75.504 279.935 75.984 279.167C76.464 278.431 77.04 277.759 77.712 277.151C78.384 276.543 79.168 276.047 80.064 275.663C80.96 275.311 81.984 275.135 83.136 275.135C84.384 275.135 85.536 275.391 86.592 275.903C87.68 276.447 88.624 277.183 89.424 278.111C90.224 279.039 90.848 280.143 91.296 281.423C91.744 282.735 91.968 284.159 91.968 285.695C91.968 287.519 91.6 289.279 90.864 290.975C90.16 292.671 89.2 294.127 87.984 295.343L84.432 292.511C85.264 291.487 85.92 290.431 86.4 289.343C86.88 288.255 87.12 287.039 87.12 285.695C87.12 284.191 86.784 282.991 86.112 282.095C85.472 281.199 84.576 280.751 83.424 280.751C82.816 280.751 82.288 280.879 81.84 281.135C81.424 281.423 81.04 281.791 80.688 282.239C80.368 282.719 80.064 283.263 79.776 283.871C79.52 284.479 79.264 285.103 79.008 285.743L77.232 290.015C76.848 290.943 76.4 291.791 75.888 292.559C75.376 293.327 74.784 293.983 74.112 294.527C73.44 295.103 72.656 295.551 71.76 295.871C70.896 296.191 69.888 296.351 68.736 296.351C67.456 296.351 66.256 296.095 65.136 295.583C64.016 295.071 63.024 294.319 62.16 293.327C61.328 292.367 60.656 291.183 60.144 289.775C59.664 288.399 59.424 286.831 59.424 285.071ZM60 316.459H91.392V322.027H60V316.459ZM59.424 356.598C59.424 354.55 59.792 352.678 60.528 350.982C61.296 349.286 62.384 347.83 63.792 346.614C65.232 345.398 66.96 344.454 68.976 343.782C70.992 343.11 73.28 342.774 75.84 342.774C78.368 342.774 80.624 343.11 82.608 343.782C84.624 344.454 86.32 345.398 87.696 346.614C89.072 347.83 90.128 349.286 90.864 350.982C91.6 352.678 91.968 354.55 91.968 356.598C91.968 358.646 91.6 360.518 90.864 362.214C90.128 363.91 89.072 365.366 87.696 366.582C86.32 367.83 84.624 368.79 82.608 369.462C80.624 370.134 78.368 370.47 75.84 370.47C73.28 370.47 70.992 370.134 68.976 369.462C66.96 368.79 65.232 367.83 63.792 366.582C62.384 365.366 61.296 363.91 60.528 362.214C59.792 360.518 59.424 358.646 59.424 356.598ZM64.272 356.598C64.272 357.846 64.544 358.966 65.088 359.958C65.632 360.95 66.4 361.798 67.392 362.502C68.416 363.206 69.632 363.75 71.04 364.134C72.48 364.518 74.08 364.71 75.84 364.71C79.36 364.71 82.112 363.974 84.096 362.502C86.112 361.062 87.12 359.094 87.12 356.598C87.12 354.102 86.112 352.118 84.096 350.646C82.112 349.206 79.36 348.486 75.84 348.486C74.08 348.486 72.48 348.678 71.04 349.062C69.632 349.446 68.416 349.99 67.392 350.694C66.4 351.398 65.632 352.246 65.088 353.238C64.544 354.23 64.272 355.35 64.272 356.598ZM60 391.15H91.392V396.862L73.728 406.654L67.056 409.87V410.062C68.688 409.934 70.432 409.774 72.288 409.582C74.176 409.422 76 409.342 77.76 409.342H91.392V414.67H60V408.958L77.664 399.166L84.336 395.95V395.758C82.672 395.886 80.928 396.03 79.104 396.19C77.28 396.382 75.488 396.478 73.728 396.478H60V391.15ZM60 461.059H91.392V471.091C91.392 472.723 91.248 474.211 90.96 475.555C90.704 476.931 90.272 478.115 89.664 479.107C89.088 480.131 88.304 480.915 87.312 481.459C86.32 482.035 85.104 482.323 83.664 482.323C82.16 482.323 80.768 481.939 79.488 481.171C78.208 480.403 77.328 479.331 76.848 477.955H76.656C76.272 479.683 75.456 481.107 74.208 482.227C72.992 483.379 71.328 483.955 69.216 483.955C67.648 483.955 66.288 483.651 65.136 483.043C63.984 482.435 63.024 481.587 62.256 480.499C61.488 479.443 60.912 478.179 60.528 476.707C60.176 475.235 60 473.635 60 471.907V461.059ZM78.432 466.627V470.611C78.432 472.819 78.832 474.403 79.632 475.363C80.432 476.355 81.504 476.851 82.848 476.851C84.384 476.851 85.472 476.339 86.112 475.315C86.752 474.291 87.072 472.755 87.072 470.707V466.627H78.432ZM64.32 466.627V471.331C64.32 473.635 64.736 475.411 65.568 476.659C66.432 477.907 67.744 478.531 69.504 478.531C71.168 478.531 72.368 477.923 73.104 476.707C73.872 475.491 74.256 473.699 74.256 471.331V466.627H64.32ZM60 504.1H91.392V514.708C91.392 516.34 91.232 517.86 90.912 519.268C90.592 520.676 90.064 521.892 89.328 522.916C88.624 523.94 87.68 524.74 86.496 525.316C85.312 525.924 83.84 526.228 82.08 526.228C79.68 526.228 77.744 525.652 76.272 524.5C74.8 523.38 73.744 521.876 73.104 519.988L60 527.476V521.236L72.288 514.468V509.668H60V504.1ZM76.704 509.668V514.132C76.704 516.276 77.152 517.908 78.048 519.028C78.944 520.18 80.288 520.756 82.08 520.756C83.904 520.756 85.168 520.18 85.872 519.028C86.576 517.908 86.928 516.276 86.928 514.132V509.668H76.704ZM60 546.906H91.392V552.474H60V546.906ZM60 574.853H91.392V593.765H86.688V580.421H78.672V591.701H73.968V580.421H64.704V594.245H60V574.853ZM60 615.081H91.392V634.041H86.688V620.649H77.808V632.073H73.104V620.649H60V615.081ZM60 653.95H91.392V659.518H60V653.95ZM60 681.896H91.392V687.608L73.728 697.4L67.056 700.616V700.808C68.688 700.68 70.432 700.52 72.288 700.328C74.176 700.168 76 700.088 77.76 700.088H91.392V705.416H60V699.704L77.664 689.912L84.336 686.696V686.504C82.672 686.632 80.928 686.776 79.104 686.936C77.28 687.128 75.488 687.224 73.728 687.224H60V681.896ZM59.424 740.949C59.424 738.837 59.776 736.869 60.48 735.045C61.184 733.253 62.224 731.685 63.6 730.341C64.976 729.029 66.672 728.005 68.688 727.269C70.704 726.533 73.008 726.165 75.6 726.165C78.16 726.165 80.448 726.549 82.464 727.317C84.512 728.085 86.24 729.125 87.648 730.437C89.056 731.781 90.128 733.349 90.864 735.141C91.6 736.965 91.968 738.917 91.968 740.997C91.968 743.237 91.552 745.125 90.72 746.661C89.92 748.229 89.008 749.509 87.984 750.501L84.384 747.525C85.152 746.725 85.792 745.829 86.304 744.837C86.848 743.877 87.12 742.661 87.12 741.189C87.12 739.781 86.848 738.501 86.304 737.349C85.792 736.229 85.04 735.253 84.048 734.421C83.088 733.621 81.904 732.997 80.496 732.549C79.088 732.101 77.504 731.877 75.744 731.877C72.16 731.877 69.344 732.677 67.296 734.277C65.28 735.909 64.272 738.309 64.272 741.477C64.272 742.373 64.384 743.221 64.608 744.021C64.864 744.821 65.216 745.477 65.664 745.989H72.432V740.037H76.992V750.981H63.168C62.112 749.925 61.216 748.517 60.48 746.757C59.776 745.029 59.424 743.093 59.424 740.949Z" fill="black"/>
</svg>
