<svg width="150" height="866" viewBox="0 0 150 866" fill="none" xmlns="http://www.w3.org/2000/svg">
<path d="M80.0209 61.6688H70.0812L55.73 97.5094H64.7201L67.0657 91.4367H80.6268L78.1714 84.7205H69.244L75.0513 69.2987L85.3828 97.5094H94.3733L80.0209 61.6688Z" fill="black"/>
<path d="M114.488 71.1521C114.464 71.0298 114.43 70.9114 114.383 70.7982C114.372 70.7587 114.334 70.6858 114.334 70.6858C114.011 70.008 113.3 69.5362 112.474 69.5362C111.341 69.5362 110.424 70.4195 110.424 71.5087C110.424 71.7304 110.464 71.9427 110.533 72.1411L110.528 72.1431C111.432 75.2428 111.9 78.4809 111.9 81.7893C111.9 91.2729 108.061 100.19 101.092 106.896C94.1228 113.603 84.8564 117.295 75 117.295C65.144 117.295 55.8768 113.602 48.908 106.896C41.9376 100.19 38.1 91.2729 38.1 81.7893C38.1 72.3052 41.9384 63.3889 48.908 56.6826C55.8768 49.9759 65.144 46.2833 75 46.2833C83.8011 46.2833 92.1302 49.2303 98.7747 54.6363C98.5516 55.1831 98.427 55.778 98.427 56.4013C98.427 59.0646 100.671 61.2226 103.439 61.2226C106.206 61.2226 108.45 59.0646 108.45 56.4013C108.45 53.738 106.206 51.5788 103.439 51.5788C102.835 51.5788 102.256 51.6814 101.72 51.8696C94.5431 45.9306 85.209 42.3378 75 42.3378C52.3561 42.3378 34 60.0008 34 81.7893C34 103.578 52.3561 121.241 75 121.241C97.6439 121.241 116 103.578 116 81.7893C116 78.1038 115.471 74.5366 114.488 71.1521Z" fill="black"/>
<path d="M61 157.984H92.392V164.272L77.032 169.84C76.04 170.192 75.016 170.528 73.96 170.848C72.936 171.168 71.912 171.504 70.888 171.856V172.048C71.912 172.4 72.936 172.72 73.96 173.008C75.016 173.328 76.04 173.664 77.032 174.016L92.392 179.44V185.776H61V180.64H75.352C76.088 180.64 76.888 180.656 77.752 180.688C78.616 180.752 79.48 180.816 80.344 180.88C81.24 180.944 82.104 181.024 82.936 181.12C83.8 181.216 84.6 181.296 85.336 181.36V181.168L78.04 178.624L63.928 173.488V170.176L78.04 164.992L85.336 162.496V162.304C84.6 162.368 83.8 162.432 82.936 162.496C82.104 162.592 81.24 162.672 80.344 162.736C79.48 162.832 78.616 162.896 77.752 162.928C76.888 162.992 76.088 163.024 75.352 163.024H61V157.984ZM61 212.95H92.392V218.518H61V212.95ZM60.424 254.865C60.424 252.753 60.824 250.705 61.624 248.721C62.424 246.769 63.56 245.041 65.032 243.537L68.824 246.801C67.768 247.921 66.904 249.201 66.232 250.641C65.592 252.081 65.272 253.521 65.272 254.961C65.272 256.753 65.64 258.113 66.376 259.041C67.112 259.969 68.088 260.433 69.304 260.433C69.944 260.433 70.488 260.305 70.936 260.049C71.384 259.825 71.768 259.489 72.088 259.041C72.44 258.625 72.76 258.113 73.048 257.505C73.336 256.929 73.624 256.289 73.912 255.585L75.784 251.265C76.104 250.497 76.504 249.729 76.984 248.961C77.464 248.225 78.04 247.553 78.712 246.945C79.384 246.337 80.168 245.841 81.064 245.457C81.96 245.105 82.984 244.929 84.136 244.929C85.384 244.929 86.536 245.185 87.592 245.697C88.68 246.241 89.624 246.977 90.424 247.905C91.224 248.833 91.848 249.937 92.296 251.217C92.744 252.529 92.968 253.953 92.968 255.489C92.968 257.313 92.6 259.073 91.864 260.769C91.16 262.465 90.2 263.921 88.984 265.137L85.432 262.305C86.264 261.281 86.92 260.225 87.4 259.137C87.88 258.049 88.12 256.833 88.12 255.489C88.12 253.985 87.784 252.785 87.112 251.889C86.472 250.993 85.576 250.545 84.424 250.545C83.816 250.545 83.288 250.673 82.84 250.929C82.424 251.217 82.04 251.585 81.688 252.033C81.368 252.513 81.064 253.057 80.776 253.665C80.52 254.273 80.264 254.897 80.008 255.537L78.232 259.809C77.848 260.737 77.4 261.585 76.888 262.353C76.376 263.121 75.784 263.777 75.112 264.321C74.44 264.897 73.656 265.345 72.76 265.665C71.896 265.985 70.888 266.145 69.736 266.145C68.456 266.145 67.256 265.889 66.136 265.377C65.016 264.865 64.024 264.113 63.16 263.121C62.328 262.161 61.656 260.977 61.144 259.569C60.664 258.193 60.424 256.625 60.424 254.865ZM60.424 299.471C60.424 297.359 60.824 295.311 61.624 293.327C62.424 291.375 63.56 289.647 65.032 288.143L68.824 291.407C67.768 292.527 66.904 293.807 66.232 295.247C65.592 296.687 65.272 298.127 65.272 299.567C65.272 301.359 65.64 302.719 66.376 303.647C67.112 304.575 68.088 305.039 69.304 305.039C69.944 305.039 70.488 304.911 70.936 304.655C71.384 304.431 71.768 304.095 72.088 303.647C72.44 303.231 72.76 302.719 73.048 302.111C73.336 301.535 73.624 300.895 73.912 300.191L75.784 295.871C76.104 295.103 76.504 294.335 76.984 293.567C77.464 292.831 78.04 292.159 78.712 291.551C79.384 290.943 80.168 290.447 81.064 290.063C81.96 289.711 82.984 289.535 84.136 289.535C85.384 289.535 86.536 289.791 87.592 290.303C88.68 290.847 89.624 291.583 90.424 292.511C91.224 293.439 91.848 294.543 92.296 295.823C92.744 297.135 92.968 298.559 92.968 300.095C92.968 301.919 92.6 303.679 91.864 305.375C91.16 307.071 90.2 308.527 88.984 309.743L85.432 306.911C86.264 305.887 86.92 304.831 87.4 303.743C87.88 302.655 88.12 301.439 88.12 300.095C88.12 298.591 87.784 297.391 87.112 296.495C86.472 295.599 85.576 295.151 84.424 295.151C83.816 295.151 83.288 295.279 82.84 295.535C82.424 295.823 82.04 296.191 81.688 296.639C81.368 297.119 81.064 297.663 80.776 298.271C80.52 298.879 80.264 299.503 80.008 300.143L78.232 304.415C77.848 305.343 77.4 306.191 76.888 306.959C76.376 307.727 75.784 308.383 75.112 308.927C74.44 309.503 73.656 309.951 72.76 310.271C71.896 310.591 70.888 310.751 69.736 310.751C68.456 310.751 67.256 310.495 66.136 309.983C65.016 309.471 64.024 308.719 63.16 307.727C62.328 306.767 61.656 305.583 61.144 304.175C60.664 302.799 60.424 301.231 60.424 299.471ZM61 335.659H92.392V341.227H61V335.659ZM60.424 380.598C60.424 378.55 60.792 376.678 61.528 374.982C62.296 373.286 63.384 371.83 64.792 370.614C66.232 369.398 67.96 368.454 69.976 367.782C71.992 367.11 74.28 366.774 76.84 366.774C79.368 366.774 81.624 367.11 83.608 367.782C85.624 368.454 87.32 369.398 88.696 370.614C90.072 371.83 91.128 373.286 91.864 374.982C92.6 376.678 92.968 378.55 92.968 380.598C92.968 382.646 92.6 384.518 91.864 386.214C91.128 387.91 90.072 389.366 88.696 390.582C87.32 391.83 85.624 392.79 83.608 393.462C81.624 394.134 79.368 394.47 76.84 394.47C74.28 394.47 71.992 394.134 69.976 393.462C67.96 392.79 66.232 391.83 64.792 390.582C63.384 389.366 62.296 387.91 61.528 386.214C60.792 384.518 60.424 382.646 60.424 380.598ZM65.272 380.598C65.272 381.846 65.544 382.966 66.088 383.958C66.632 384.95 67.4 385.798 68.392 386.502C69.416 387.206 70.632 387.75 72.04 388.134C73.48 388.518 75.08 388.71 76.84 388.71C80.36 388.71 83.112 387.974 85.096 386.502C87.112 385.062 88.12 383.094 88.12 380.598C88.12 378.102 87.112 376.118 85.096 374.646C83.112 373.206 80.36 372.486 76.84 372.486C75.08 372.486 73.48 372.678 72.04 373.062C70.632 373.446 69.416 373.99 68.392 374.694C67.4 375.398 66.632 376.246 66.088 377.238C65.544 378.23 65.272 379.35 65.272 380.598ZM61 419.95H92.392V425.662L74.728 435.454L68.056 438.67V438.862C69.688 438.734 71.432 438.574 73.288 438.382C75.176 438.222 77 438.142 78.76 438.142H92.392V443.47H61V437.758L78.664 427.966L85.336 424.75V424.558C83.672 424.686 81.928 424.83 80.104 424.99C78.28 425.182 76.488 425.278 74.728 425.278H61V419.95ZM61 499.459H92.392V509.491C92.392 511.123 92.248 512.611 91.96 513.955C91.704 515.331 91.272 516.515 90.664 517.507C90.088 518.531 89.304 519.315 88.312 519.859C87.32 520.435 86.104 520.723 84.664 520.723C83.16 520.723 81.768 520.339 80.488 519.571C79.208 518.803 78.328 517.731 77.848 516.355H77.656C77.272 518.083 76.456 519.507 75.208 520.627C73.992 521.779 72.328 522.355 70.216 522.355C68.648 522.355 67.288 522.051 66.136 521.443C64.984 520.835 64.024 519.987 63.256 518.899C62.488 517.843 61.912 516.579 61.528 515.107C61.176 513.635 61 512.035 61 510.307V499.459ZM79.432 505.027V509.011C79.432 511.219 79.832 512.803 80.632 513.763C81.432 514.755 82.504 515.251 83.848 515.251C85.384 515.251 86.472 514.739 87.112 513.715C87.752 512.691 88.072 511.155 88.072 509.107V505.027H79.432ZM65.32 505.027V509.731C65.32 512.035 65.736 513.811 66.568 515.059C67.432 516.307 68.744 516.931 70.504 516.931C72.168 516.931 73.368 516.323 74.104 515.107C74.872 513.891 75.256 512.099 75.256 509.731V505.027H65.32ZM61 547.3H92.392V557.908C92.392 559.54 92.232 561.06 91.912 562.468C91.592 563.876 91.064 565.092 90.328 566.116C89.624 567.14 88.68 567.94 87.496 568.516C86.312 569.124 84.84 569.428 83.08 569.428C80.68 569.428 78.744 568.852 77.272 567.7C75.8 566.58 74.744 565.076 74.104 563.188L61 570.676V564.436L73.288 557.668V552.868H61V547.3ZM77.704 552.868V557.332C77.704 559.476 78.152 561.108 79.048 562.228C79.944 563.38 81.288 563.956 83.08 563.956C84.904 563.956 86.168 563.38 86.872 562.228C87.576 561.108 87.928 559.476 87.928 557.332V552.868H77.704ZM61 594.906H92.392V600.474H61V594.906ZM61 627.653H92.392V646.565H87.688V633.221H79.672V644.501H74.968V633.221H65.704V647.045H61V627.653ZM61 672.681H92.392V691.641H87.688V678.249H78.808V689.673H74.104V678.249H61L61 672.681ZM61 716.35H92.392V721.918H61V716.35ZM61 749.096H92.392V754.808L74.728 764.6L68.056 767.816V768.008C69.688 767.88 71.432 767.72 73.288 767.528C75.176 767.368 77 767.288 78.76 767.288H92.392V772.616H61V766.904L78.664 757.112L85.336 753.896V753.704C83.672 753.832 81.928 753.976 80.104 754.136C78.28 754.328 76.488 754.424 74.728 754.424H61V749.096ZM60.424 812.949C60.424 810.837 60.776 808.869 61.48 807.045C62.184 805.253 63.224 803.685 64.6 802.341C65.976 801.029 67.672 800.005 69.688 799.269C71.704 798.533 74.008 798.165 76.6 798.165C79.16 798.165 81.448 798.549 83.464 799.317C85.512 800.085 87.24 801.125 88.648 802.437C90.056 803.781 91.128 805.349 91.864 807.141C92.6 808.965 92.968 810.917 92.968 812.997C92.968 815.237 92.552 817.125 91.72 818.661C90.92 820.229 90.008 821.509 88.984 822.501L85.384 819.525C86.152 818.725 86.792 817.829 87.304 816.837C87.848 815.877 88.12 814.661 88.12 813.189C88.12 811.781 87.848 810.501 87.304 809.349C86.792 808.229 86.04 807.253 85.048 806.421C84.088 805.621 82.904 804.997 81.496 804.549C80.088 804.101 78.504 803.877 76.744 803.877C73.16 803.877 70.344 804.677 68.296 806.277C66.28 807.909 65.272 810.309 65.272 813.477C65.272 814.373 65.384 815.221 65.608 816.021C65.864 816.821 66.216 817.477 66.664 817.989H73.432V812.037H77.992V822.981H64.168C63.112 821.925 62.216 820.517 61.48 818.757C60.776 817.029 60.424 815.093 60.424 812.949Z" fill="black"/>
</svg>
